<svg xmlns="http://www.w3.org/2000/svg" width="22" height="30" viewBox="0 0 22 30" fill="none">
  <path d="M15.5748 22.8764L17.2456 28.9881C17.2475 28.9951 17.2539 29 17.2612 29H19.037C19.0459 29 19.0531 28.9932 19.0532 28.9843C19.0807 26.0647 19.0687 21.0765 19.053 17.2721M15.5748 22.8764L14.9785 23.2384C14.9737 23.2413 14.9708 23.2466 14.9708 23.2522V28.9838C14.9708 28.9928 14.9635 29 14.9546 29H13.1536C13.1462 29 13.1398 28.995 13.1379 28.9879L11.7974 23.8651C11.7955 23.858 11.7891 23.853 11.7817 23.853H8.30933M15.5748 22.8764C17.371 22.0142 19.0675 19.4951 19.053 17.2721M19.053 17.2721C19.0373 13.4455 19.0176 10.8119 18.9289 10.3671C18.6816 9.12716 17.9479 8.23572 17.5592 7.73227C17.5537 7.72506 17.5555 7.71482 17.5628 7.70943C18.6631 6.9018 18.976 5.94051 18.9972 5.54258C18.9977 5.53343 18.9903 5.52627 18.9812 5.52627H14.7362C14.7248 5.52627 14.7171 5.51433 14.7214 5.50373C15.9305 2.49843 19.2326 2.58349 20.7245 4.903C20.7322 4.91497 20.7504 4.91315 20.7536 4.89927C21.0523 3.59028 20.1005 0.50803 16.4859 1.06705C13.6389 1.50736 12.0833 3.94282 11.623 5.13026C11.5887 5.21872 11.5394 5.30001 11.4733 5.3681L7.82278 9.1304C7.69601 9.26104 7.59675 9.41891 7.55393 9.59584C7.19472 11.0798 8.16272 11.7051 8.80713 11.8613C8.88045 11.8791 8.95573 11.8842 9.03117 11.8842H11.98C11.9889 11.8842 11.9962 11.8914 11.9962 11.9004V13.4575C11.9962 13.4664 11.9889 13.4737 11.98 13.4737H5.35005C5.26092 13.4737 5.17124 13.4621 5.08652 13.4344C3.34447 12.865 3.2212 11.1673 3.3779 10.39C3.38016 10.3787 3.36957 10.3694 3.35828 10.3714C0.0697392 10.9549 0.919816 13.4653 1.77379 14.6177C1.77844 14.624 1.77782 14.6324 1.77256 14.6382C1.27109 15.1876 1.07838 16.0451 1.0447 16.4072V28.9838C1.0447 28.9928 1.05195 29 1.06089 29H2.83668C2.84396 29 2.85034 28.9951 2.85228 28.9881L4.26881 23.8649C4.27075 23.8579 4.27713 23.853 4.28441 23.853H5.11904M8.30933 23.853L6.93296 28.988C6.93106 28.9951 6.92465 29 6.91732 29H5.13522C5.12628 29 5.11904 28.9928 5.11904 28.9838V23.853M8.30933 23.853H5.11904" stroke="#DEDDDD" stroke-width="0.8" stroke-linejoin="round"/>
  <path d="M13.1319 7.91104L9.37259 7.1409L6.11605 6.87354C6.09784 6.87205 6.08229 6.88612 6.08269 6.90438C6.09743 7.5726 6.23991 8.8644 6.70436 8.94303C7.29482 9.04299 7.58752 9.27096 8.0408 8.88081C8.40131 8.57051 8.92861 7.83901 9.15128 7.50611C9.15391 7.50217 9.15725 7.49906 9.16142 7.4968C9.24151 7.45347 9.41428 7.41256 9.51347 7.57371C9.6408 7.78056 9.3566 8.91936 9.60802 9.34887C9.92056 9.88279 10.8201 10.0592 11.3624 9.89727C11.9138 9.73265 12.5422 9.34152 13.0271 8.18059M13.1319 7.91104L17.9688 5.35058C18.8028 4.86203 19.5965 4.9918 19.9207 5.94591C20.3114 7.09532 19.5555 6.70282 19.4477 6.2447C19.3399 5.78659 19.1363 5.39455 18.8501 5.4385C18.5639 5.48244 14.8489 7.28487 13.0271 8.18059M13.1319 7.91104C13.0978 8.00522 13.0629 8.095 13.0271 8.18059" stroke="#DEDDDD" stroke-width="0.8" stroke-linecap="round"/>
</svg>