<svg xmlns="http://www.w3.org/2000/svg" width="19" height="16" viewBox="0 0 19 16" fill="none">
  <path d="M1.00851 15.6566L1.00851 15.6566C0.915327 15.5956 0.842211 15.5087 0.797809 15.4071L0.797717 15.4069C0.753262 15.305 0.739452 15.1923 0.75804 15.0826C0.776605 14.9731 0.826707 14.8711 0.90235 14.7895L0.902833 14.7889L3.66821 11.8205C3.75143 11.7309 3.85225 11.6594 3.9644 11.6104L4.06445 11.8395L3.96441 11.6104C4.07651 11.5615 4.19751 11.5361 4.31985 11.536H4.32013H17.443C17.5542 11.5343 17.6639 11.5652 17.7581 11.6252L17.7581 11.6252C17.8526 11.6855 17.9278 11.7724 17.9734 11.8756L17.9734 11.8756C18.0188 11.9785 18.033 12.0927 18.0135 12.2039M1.00851 15.6566L17.7672 12.1608M1.00851 15.6566C1.10168 15.7176 1.21054 15.75 1.32169 15.75H14.4467C14.5692 15.75 14.6904 15.7246 14.8026 15.6755C14.9148 15.6265 15.0155 15.5549 15.0985 15.4655L1.00851 15.6566ZM18.0135 12.2039L17.7672 12.1608M18.0135 12.2039C18.0135 12.2038 18.0136 12.2036 18.0136 12.2034L17.7672 12.1608M18.0135 12.2039C17.9944 12.314 17.9434 12.4162 17.8664 12.4977L17.867 12.4971L17.6841 12.3266C17.7276 12.2808 17.7565 12.2231 17.7672 12.1608M15.0979 6.17603L15.0984 6.17661L17.8626 9.14695L17.8628 9.14724C17.9385 9.22882 17.9885 9.33057 18.0071 9.43988L17.7606 9.48182M15.0979 6.17603L17.6207 9.80461C17.6729 9.77019 17.7139 9.72135 17.7387 9.66403M15.0979 6.17603C15.0146 6.08704 14.914 6.01598 14.8022 5.96719L15.0979 6.17603ZM17.7606 9.48182L18.007 9.43934C18.026 9.54933 18.0121 9.6619 17.9681 9.76339C17.9681 9.7634 17.9681 9.76341 17.9681 9.76341L17.7387 9.66403M17.7606 9.48182C17.7502 9.42025 17.722 9.36306 17.6796 9.31726L17.7387 9.66403M17.7606 9.48182C17.7713 9.54341 17.7635 9.60672 17.7387 9.66403M1.00855 5.98573C0.915471 6.04668 0.84222 6.13345 0.797736 6.23539C0.753257 6.33732 0.739455 6.45 0.758039 6.55967L0.758039 6.55967C0.77662 6.66932 0.826769 6.77118 0.90235 6.85277L0.902787 6.85324L3.66842 9.82355L3.66891 9.82408C3.75226 9.91308 3.85289 9.98413 3.96458 10.0329L3.96465 10.033C4.07636 10.0817 4.1969 10.1072 4.31887 10.1079H4.32013L17.4452 10.1079L17.4465 10.1079C17.5574 10.1073 17.6657 10.0744 17.7582 10.0134L14.8022 5.96718C14.6904 5.91838 14.5699 5.8929 14.448 5.89226H14.4467H1.32169H1.32158C1.21038 5.89231 1.10159 5.92478 1.00855 5.98573ZM1.00855 5.98573L1.1455 6.19489M1.00855 5.98573C1.00852 5.98575 1.00849 5.98577 1.00847 5.98579L1.1455 6.19489M1.1455 6.19489C1.19786 6.16057 1.25909 6.14228 1.32169 6.14226L17.4452 9.85785H4.32013C4.2322 9.85741 4.14525 9.83901 4.06466 9.80383C3.98407 9.76863 3.91149 9.71737 3.85139 9.65319L1.08576 6.68288C1.04321 6.63695 1.01498 6.57962 1.00453 6.5179C0.994065 6.45617 1.00183 6.39276 1.02687 6.33538C1.05191 6.278 1.09313 6.22917 1.1455 6.19489ZM1.32169 4.46412H1.32158C1.21035 4.46406 1.10155 4.43157 1.00851 4.37063C0.915474 4.30968 0.842232 4.22294 0.797745 4.121L1.32169 4.46412ZM1.32169 4.46412H14.4467H14.4469M1.32169 4.46412H14.4469M14.4469 4.46412C14.5693 4.46402 14.6903 4.43864 14.8024 4.38968L14.4469 4.46412ZM4.31987 0.250068L4.32013 0.250068L17.443 0.250068C17.5542 0.248344 17.664 0.279297 17.7581 0.339278C17.8526 0.399545 17.9278 0.486561 17.9734 0.589693C18.0188 0.692563 18.033 0.806799 18.0135 0.918024M4.31987 0.250068L17.6841 1.04069L17.867 1.2112L17.8664 1.21179C17.9434 1.13026 17.9944 1.02804 18.0135 0.918024M4.31987 0.250068C4.19754 0.250196 4.07653 0.275524 3.96441 0.324485L4.31987 0.250068ZM18.0135 0.918024L17.7672 0.874883L18.0136 0.917468C18.0136 0.917653 18.0135 0.917839 18.0135 0.918024ZM0.90235 3.5036L0.902831 3.50308L3.66819 0.534645C3.66824 0.534589 3.66829 0.534534 3.66834 0.534478L3.66846 0.534347L3.85139 0.704756L0.90235 3.5036ZM0.90235 3.5036C0.826769 3.58519 0.77662 3.68706 0.758039 3.7967L0.758039 3.7967M0.90235 3.5036L0.758039 3.7967M0.758039 3.7967C0.739458 3.90636 0.753249 4.01904 0.797736 4.12098L0.758039 3.7967ZM15.0986 15.4655L17.8655 12.4987L15.0986 15.4655ZM1.00445 6.51791L1.00445 6.51791L1.00445 6.51791ZM15.0986 4.17955L17.8655 1.21273L14.9154 4.00944L15.0983 4.17995L15.0983 4.17992C15.0984 4.17979 15.0985 4.17967 15.0986 4.17955Z" stroke="#C3E768" stroke-width="0.5"/>
</svg>