<svg xmlns="http://www.w3.org/2000/svg" width="16" height="16" viewBox="0 0 16 16" fill="none">
  <path d="M5.42102 8.97368C5.90958 8.97368 6.37812 8.77961 6.72358 8.43414C7.06905 8.08868 7.26312 7.62014 7.26312 7.13158C7.26312 6.11474 6.8947 5.65789 6.52628 4.92105C5.73639 3.342 6.36123 1.93389 7.99997 0.5C8.36839 2.34211 9.47365 4.11053 10.9473 5.28947C12.421 6.46842 13.1579 7.86842 13.1579 9.34211C13.1579 10.0194 13.0244 10.6902 12.7652 11.3159C12.506 11.9417 12.1261 12.5103 11.6471 12.9893C11.1682 13.4682 10.5996 13.8482 9.97381 14.1074C9.34802 14.3666 8.67731 14.5 7.99997 14.5C7.32262 14.5 6.65191 14.3666 6.02613 14.1074C5.40034 13.8482 4.83174 13.4682 4.35278 12.9893C3.87383 12.5103 3.4939 11.9417 3.23469 11.3159C2.97548 10.6902 2.84207 10.0194 2.84207 9.34211C2.84207 8.49253 3.16112 7.65179 3.57891 7.13158C3.57891 7.62014 3.77299 8.08868 4.11845 8.43414C4.46392 8.77961 4.93246 8.97368 5.42102 8.97368Z" stroke="#2E47E0" stroke-width="0.875" stroke-linecap="round" stroke-linejoin="round"/>
</svg>